<?xml version="1.0" standalone="no"?>
<!DOCTYPE svg PUBLIC "-//W3C//DTD SVG 20010904//EN"
 "http://www.w3.org/TR/2001/REC-SVG-20010904/DTD/svg10.dtd">
<svg version="1.0" xmlns="http://www.w3.org/2000/svg"
 width="498.000000pt" height="498.000000pt" viewBox="0 0 498.000000 498.000000"
 preserveAspectRatio="xMidYMid meet">

<g transform="translate(0.000000,498.000000) scale(0.100000,-0.100000)"
fill="#000000" stroke="none">
<path d="M0 2495 l0 -2485 2490 0 2490 0 0 2485 0 2485 -2490 0 -2490 0 0
-2485z m2555 2167 c28 -6 65 -14 83 -18 18 -3 35 -10 38 -15 3 -5 12 -9 20 -9
8 0 34 -9 56 -20 23 -11 48 -20 55 -20 7 0 13 -4 13 -9 0 -5 8 -11 18 -14 22
-7 71 -37 96 -59 11 -10 23 -18 28 -18 10 0 58 -41 127 -110 96 -95 154 -168
168 -212 3 -10 9 -18 14 -18 5 0 9 -9 9 -20 0 -11 5 -20 10 -20 6 0 10 -9 10
-20 0 -11 5 -20 10 -20 6 0 10 -9 10 -19 0 -11 5 -23 10 -26 6 -3 10 -17 10
-31 0 -13 5 -24 10 -24 6 0 10 -10 10 -23 0 -13 4 -27 9 -33 5 -5 12 -29 16
-54 7 -45 10 -316 3 -400 l-3 -45 115 -3 c130 -3 200 11 200 40 0 27 24 98 32
98 5 0 8 7 8 15 0 20 44 65 64 65 8 0 18 5 21 10 3 6 17 10 31 10 13 0 24 5
24 10 0 6 22 10 49 10 28 0 53 -4 56 -10 3 -5 14 -10 24 -10 43 0 151 -136
151 -191 0 -10 14 -25 32 -33 26 -13 73 -16 270 -16 l238 0 0 -109 c0 -84 -3
-111 -15 -121 -12 -10 -259 -12 -1187 -9 -931 3 -1172 1 -1175 -8 -3 -7 -11
-13 -19 -13 -17 0 -92 -73 -111 -108 -16 -27 -17 -136 -1 -165 22 -43 78 -89
130 -108 46 -17 81 -19 273 -19 220 0 221 0 261 -26 62 -40 84 -82 84 -160 0
-36 -5 -75 -12 -87 -18 -34 -67 -77 -97 -83 -14 -4 -30 -10 -36 -14 -11 -8
-2561 -20 -2582 -13 -10 4 -13 158 -13 724 l0 720 102 -5 c129 -6 198 -15 198
-27 0 -5 11 -9 24 -9 14 0 28 -4 31 -10 3 -5 15 -10 26 -10 10 0 19 -4 19 -10
0 -5 9 -10 20 -10 11 0 20 -4 20 -10 0 -5 6 -10 13 -10 7 0 23 -9 35 -20 12
-11 26 -20 31 -20 15 0 141 -129 141 -145 0 -7 3 -15 8 -17 11 -5 52 -84 52
-102 0 -9 4 -16 9 -16 9 0 17 -36 27 -120 3 -25 10 -49 15 -54 5 -6 9 -16 9
-24 0 -19 64 -82 83 -82 9 0 19 -4 22 -10 7 -11 252 -14 279 -4 21 8 20 30 -2
62 -10 15 -24 41 -32 57 -8 17 -17 32 -20 35 -10 10 -50 138 -50 162 0 13 -5
29 -11 35 -14 14 -14 372 0 386 6 6 11 22 11 36 0 23 12 70 31 116 4 11 14 38
21 60 7 22 15 42 18 45 3 3 10 14 16 25 27 50 40 70 57 89 9 11 17 25 17 32 0
7 4 14 8 16 4 2 23 23 42 48 43 55 139 150 153 150 5 0 17 8 26 18 9 9 28 23
44 31 15 8 27 18 27 23 0 4 9 8 19 8 11 0 21 3 23 8 4 10 128 72 144 72 8 0
14 5 14 10 0 6 11 10 24 10 14 0 27 4 30 9 6 9 17 11 123 29 29 5 56 12 60 16
11 10 340 0 398 -12z m2003 -236 c15 -8 40 -29 56 -47 26 -29 29 -39 29 -103
0 -44 -4 -71 -12 -74 -6 -2 -11 -10 -11 -18 0 -7 -12 -21 -27 -31 -16 -10 -30
-21 -34 -25 -10 -15 -94 -20 -137 -9 -23 7 -53 23 -67 37 -27 27 -55 85 -55
116 0 46 72 148 104 148 8 0 18 5 21 10 9 15 102 12 133 -4z m-760 -22 c39
-27 20 -84 -28 -84 -45 0 -68 59 -32 86 22 17 33 17 60 -2z m-3163 -256 c45
-20 26 -88 -25 -88 -23 0 -50 21 -50 40 0 8 38 57 47 59 1 1 14 -4 28 -11z
m3813 -1388 c24 -23 25 -25 16 -57 -5 -19 -13 -23 -44 -23 -30 0 -39 5 -48 25
-10 22 -9 29 11 50 27 30 38 30 65 5z m240 -488 c10 -2 12 -186 7 -954 l-5
-953 -1012 -3 c-668 -1 -1015 1 -1022 8 -5 5 -22 10 -37 10 -15 0 -31 5 -34
10 -3 6 -19 10 -36 10 -16 0 -29 5 -29 10 0 6 -6 10 -14 10 -17 0 -100 42
-104 53 -2 4 -10 7 -17 7 -18 0 -177 157 -195 193 -7 15 -17 27 -22 27 -4 0
-8 9 -8 20 0 11 -4 20 -10 20 -5 0 -10 9 -10 20 0 11 -4 20 -8 20 -30 0 -52
274 -26 331 6 13 21 45 32 71 12 26 29 57 39 69 55 68 76 89 89 89 8 0 14 3
14 8 0 10 50 32 71 32 10 0 21 5 24 10 8 14 51 13 78 -2 27 -14 67 -59 67 -74
0 -18 90 -114 106 -114 8 0 14 -3 14 -8 0 -4 15 -13 33 -20 17 -7 40 -18 49
-23 41 -21 238 -2 238 23 0 5 7 8 14 8 19 0 146 127 146 146 0 8 5 14 10 14 6
0 10 7 10 15 0 8 4 23 9 33 22 41 34 129 22 162 -6 18 -11 46 -11 61 0 15 -4
31 -10 34 -5 3 -10 17 -10 31 0 13 -4 24 -10 24 -5 0 -10 6 -10 13 -1 34 -153
186 -187 187 -7 0 -13 5 -13 10 0 6 -11 10 -24 10 -14 0 -27 4 -30 9 -12 19
-94 24 -443 28 -227 2 -363 7 -363 13 0 6 -7 10 -15 10 -9 0 -28 12 -42 26
-22 22 -26 35 -27 93 -1 64 1 68 34 101 49 49 74 59 160 68 63 6 2479 10 2518
4z m-4182 -286 c21 -22 -1 -66 -33 -66 -26 0 -53 21 -53 40 0 35 59 53 86 26z
m249 -456 c3 -5 15 -10 26 -10 10 0 19 -4 19 -10 0 -5 6 -10 13 -10 17 0 39
-24 66 -73 43 -76 19 -188 -51 -240 -48 -36 -129 -54 -171 -39 -19 7 -40 12
-48 12 -19 0 -81 57 -98 89 -15 28 -16 164 -1 169 6 2 10 9 10 15 0 19 42 61
75 76 17 7 37 17 45 22 21 11 108 11 115 -1z m852 -46 c-1 -2 -13 -1 -26 3
-16 4 -19 8 -10 14 12 7 45 -9 36 -17z m-267 -565 c0 -41 1 -41 30 -36 16 4
32 2 35 -2 9 -15 -6 -41 -24 -41 -25 0 -41 -20 -41 -53 0 -39 -22 -30 -33 14
-11 42 -16 47 -27 30 -7 -12 -11 -12 -24 2 -28 28 -13 67 26 67 11 0 18 7 18
18 0 19 18 42 32 42 4 0 8 -19 8 -41z m-883 -485 c68 -69 84 -91 79 -108 -7
-27 -138 -156 -160 -156 -19 0 -150 108 -166 137 -11 18 -9 26 11 55 23 31
139 156 148 157 2 1 42 -38 88 -85z m1218 -74 c0 -33 -2 -35 -37 -38 l-38 -3
0 41 0 41 38 -3 c35 -3 37 -5 37 -38z"/>
<path d="M4423 4337 c-37 -38 -35 -107 5 -128 15 -8 30 -18 33 -22 3 -5 27 1
53 13 35 17 46 28 46 45 0 13 2 30 5 38 3 7 -7 28 -24 45 -36 39 -84 43 -118
9z"/>
<path d="M4020 1611 c0 -54 -47 -170 -84 -204 -49 -48 -142 -87 -204 -87 -25
0 -32 -4 -32 -20 0 -17 7 -20 50 -20 28 0 58 -4 68 -9 9 -5 31 -15 47 -22 35
-16 95 -77 95 -96 0 -7 4 -13 8 -13 4 0 13 -21 21 -47 7 -27 17 -58 22 -71 5
-13 9 -32 9 -42 0 -11 3 -20 8 -20 9 0 32 72 32 99 0 11 5 23 10 26 6 3 10 15
10 26 0 11 29 48 63 83 64 64 76 69 172 83 67 9 71 43 5 43 -21 0 -42 5 -45
10 -3 6 -17 10 -31 10 -13 0 -24 5 -24 10 0 6 -7 10 -16 10 -26 0 -99 86 -114
132 -7 24 -17 47 -22 53 -4 5 -8 16 -8 25 0 21 -23 70 -32 70 -5 0 -8 -13 -8
-29z"/>
<path d="M663 1442 c-22 -7 -46 -26 -70 -56 -28 -34 0 -120 45 -141 12 -5 22
-13 22 -17 0 -13 56 -9 85 6 35 18 75 78 75 111 0 25 -15 58 -37 82 -14 16
-89 25 -120 15z"/>
<path d="M1280 870 c0 -5 5 -10 10 -10 6 0 10 5 10 10 0 6 -4 10 -10 10 -5 0
-10 -4 -10 -10z"/>
<path d="M326 380 c-20 -22 -36 -45 -36 -50 0 -17 62 -70 83 -70 23 0 77 57
77 83 0 9 -4 17 -9 17 -6 0 -18 14 -28 30 -23 40 -44 38 -87 -10z"/>
</g>
</svg>
